<svg id="visual" viewBox="0 0 960 540" width="960" height="540" xmlns="http://www.w3.org/2000/svg" xmlns:xlink="http://www.w3.org/1999/xlink" version="1.1"><rect x="0" y="0" width="960" height="540" fill="#2d9cf7"></rect><path d="M0 380L22.8 370.3C45.7 360.7 91.3 341.3 137 341.2C182.7 341 228.3 360 274 364.8C319.7 369.7 365.3 360.3 411.2 352.3C457 344.3 503 337.7 548.8 334.5C594.7 331.3 640.3 331.7 686 339C731.7 346.3 777.3 360.7 823 363.3C868.7 366 914.3 357 937.2 352.5L960 348L960 541L937.2 541C914.3 541 868.7 541 823 541C777.3 541 731.7 541 686 541C640.3 541 594.7 541 548.8 541C503 541 457 541 411.2 541C365.3 541 319.7 541 274 541C228.3 541 182.7 541 137 541C91.3 541 45.7 541 22.8 541L0 541Z" fill="#09c199"></path><path d="M0 362L22.8 372.2C45.7 382.3 91.3 402.7 137 403.8C182.7 405 228.3 387 274 387.8C319.7 388.7 365.3 408.3 411.2 417.3C457 426.3 503 424.7 548.8 416.7C594.7 408.7 640.3 394.3 686 391.8C731.7 389.3 777.3 398.7 823 399.5C868.7 400.3 914.3 392.7 937.2 388.8L960 385L960 541L937.2 541C914.3 541 868.7 541 823 541C777.3 541 731.7 541 686 541C640.3 541 594.7 541 548.8 541C503 541 457 541 411.2 541C365.3 541 319.7 541 274 541C228.3 541 182.7 541 137 541C91.3 541 45.7 541 22.8 541L0 541Z" fill="#06b58f"></path><path d="M0 405L22.8 413C45.7 421 91.3 437 137 443.5C182.7 450 228.3 447 274 443.7C319.7 440.3 365.3 436.7 411.2 430.2C457 423.7 503 414.3 548.8 407.8C594.7 401.3 640.3 397.7 686 399C731.7 400.3 777.3 406.7 823 408.2C868.7 409.7 914.3 406.3 937.2 404.7L960 403L960 541L937.2 541C914.3 541 868.7 541 823 541C777.3 541 731.7 541 686 541C640.3 541 594.7 541 548.8 541C503 541 457 541 411.2 541C365.3 541 319.7 541 274 541C228.3 541 182.7 541 137 541C91.3 541 45.7 541 22.8 541L0 541Z" fill="#04aa86"></path><path d="M0 433L22.8 436.2C45.7 439.3 91.3 445.7 137 448.2C182.7 450.7 228.3 449.3 274 453.7C319.7 458 365.3 468 411.2 466.8C457 465.7 503 453.3 548.8 447.3C594.7 441.3 640.3 441.7 686 445C731.7 448.3 777.3 454.7 823 459.8C868.7 465 914.3 469 937.2 471L960 473L960 541L937.2 541C914.3 541 868.7 541 823 541C777.3 541 731.7 541 686 541C640.3 541 594.7 541 548.8 541C503 541 457 541 411.2 541C365.3 541 319.7 541 274 541C228.3 541 182.7 541 137 541C91.3 541 45.7 541 22.8 541L0 541Z" fill="#029f7c"></path><path d="M0 504L22.8 503.2C45.7 502.3 91.3 500.7 137 499.2C182.7 497.7 228.3 496.3 274 492.8C319.7 489.3 365.3 483.7 411.2 480.8C457 478 503 478 548.8 484C594.7 490 640.3 502 686 508.3C731.7 514.7 777.3 515.3 823 510.2C868.7 505 914.3 494 937.2 488.5L960 483L960 541L937.2 541C914.3 541 868.7 541 823 541C777.3 541 731.7 541 686 541C640.3 541 594.7 541 548.8 541C503 541 457 541 411.2 541C365.3 541 319.7 541 274 541C228.3 541 182.7 541 137 541C91.3 541 45.7 541 22.8 541L0 541Z" fill="#009473"></path></svg>