<svg width="100%" height="100%" id="svg" viewBox="0 0 1440 600" xmlns="http://www.w3.org/2000/svg" class="transition duration-300 ease-in-out delay-150"><path d="M 0,600 C 0,600 0,200 0,200 C 78.03827751196172,220.80382775119617 156.07655502392345,241.60765550239233 259,228 C 361.92344497607655,214.39234449760767 489.73205741626793,166.3732057416268 599,180 C 708.2679425837321,193.6267942583732 798.9952153110047,268.8995215311005 879,260 C 959.0047846889953,251.1004784688995 1028.287081339713,158.0287081339713 1120,134 C 1211.712918660287,109.97129186602872 1325.8564593301435,154.98564593301435 1440,200 C 1440,200 1440,600 1440,600 Z" stroke="none" stroke-width="0" fill="#20c997" fill-opacity="0.53" class="transition-all duration-300 ease-in-out delay-150 path-0" transform="rotate(-180 720 300)"></path><path d="M 0,600 C 0,600 0,400 0,400 C 118.6794258373206,379.444976076555 237.3588516746412,358.8899521531101 341,372 C 444.6411483253588,385.1100478468899 533.2440191387559,431.8851674641148 602,439 C 670.7559808612441,446.1148325358852 719.665071770335,413.5693779904306 824,392 C 928.334928229665,370.4306220095694 1088.0956937799042,359.8373205741627 1200,363 C 1311.9043062200958,366.1626794258373 1375.952153110048,383.08133971291863 1440,400 C 1440,400 1440,600 1440,600 Z" stroke="none" stroke-width="0" fill="#20c997" fill-opacity="1" class="transition-all duration-300 ease-in-out delay-150 path-1" transform="rotate(-180 720 300)"></path></svg>
